<svg width="458" height="322" viewBox="0 0 458 322" fill="none" xmlns="http://www.w3.org/2000/svg">
<mask id="mask0_3059_8834" style="mask-type:alpha" maskUnits="userSpaceOnUse" x="0" y="0" width="458" height="322">
<rect width="458" height="322" fill="#F7F7F7"/>
</mask>
<g mask="url(#mask0_3059_8834)">
<circle cx="228" cy="229" r="228.5" stroke="url(#paint0_linear_3059_8834)"/>
<circle cx="229" cy="280" r="228.5" stroke="url(#paint1_linear_3059_8834)"/>
<path d="M229.581 295.615C229.496 292.939 229.409 290.262 229.288 287.586C229.044 282.174 228.666 276.763 227.906 271.397C226.634 262.412 223.286 254.417 220.945 245.743C220.017 242.306 219.288 238.815 218.732 235.3C217.694 228.74 217.281 222.147 217.337 215.523C217.394 209.03 217.863 202.475 220.143 196.338C221.382 193.001 222.755 188.819 225.468 186.37C225.897 185.982 226.66 185.556 227.013 185.194C227.013 185.192 227.013 185.188 227.013 185.185C227.148 185.083 227.278 184.976 227.402 184.865C227.495 184.265 227.608 183.666 227.697 183.058C227.705 183.013 227.71 182.966 227.717 182.92C226.315 182.807 224.769 183.82 223.537 184.355C220.6 185.633 217.586 186.724 214.66 188.03C213.313 188.631 211.945 189.26 210.631 189.899C209.347 190.523 208.338 191.575 207.048 192.203C205.606 192.905 204.162 193.6 202.696 194.256C201.588 194.752 200.475 195.243 199.371 195.751C200.16 197.88 201.188 199.923 202.427 201.827C202.388 201.964 202.349 202.101 202.306 202.238C201.218 205.699 199.095 208.687 197.647 211.988C197.292 212.798 196.993 213.625 196.698 214.447L196.701 214.448C197.364 214.81 197.392 215.618 197.617 216.316C199.487 222.109 196.421 225.455 195.579 230.876C194.904 235.216 196.528 239.141 196.347 243.378C196.23 246.112 194.713 248.454 194.01 251.036C193.695 252.193 193.476 253.37 193.31 254.557C191.739 265.867 189.196 277.12 186.981 288.34C186.45 291.027 185.991 293.931 185.297 296.77L185.302 296.771C186.015 305.451 186.108 314.326 186.042 323.097H229.53C229.721 319.178 229.863 315.254 229.876 311.33C229.894 306.048 229.749 300.879 229.581 295.615ZM219.978 280.428C219.351 279.025 220.175 277.151 221.807 277.038C222.559 276.985 223.023 277.012 223.651 277.502C224.993 278.551 224.43 280.267 223.491 281.379C222.561 282.485 220.473 281.537 219.978 280.428ZM225.024 306.628C224.093 307.73 222.007 306.785 221.511 305.677C220.884 304.272 221.709 302.399 223.339 302.286C224.091 302.233 224.556 302.26 225.183 302.75C226.527 303.799 225.96 305.515 225.024 306.628Z" fill="#45B34A"/>
<path d="M175.635 138.015C175.63 138.033 175.639 138.042 175.621 138.06C175.62 138.046 175.62 138.029 175.617 138.015C175.624 138.015 175.629 138.015 175.635 138.015Z" fill="#8CC295"/>
<path d="M240.609 176.749L240.611 176.661C244.539 176.531 249.125 174.247 252.501 171.62L252.572 171.709C252.428 172.844 252.497 174.091 252.412 175.11C252.244 177.108 252.141 179.172 252.293 181.184C249.96 181.326 247.703 181.924 245.289 181.73C242.592 181.514 239.714 180.817 237.194 179.837C234.974 178.973 233.001 177.542 231.114 176.116C229.824 175.143 228.812 173.983 227.709 172.821C227.512 172.614 227.305 172.338 227.086 172.06C228.368 172.78 229.674 173.463 231.001 174.158C232.629 175.011 234.37 175.576 236.147 176.06C237.577 176.45 239.141 176.707 240.609 176.749Z" fill="#E39476"/>
<path d="M223.649 277.502C224.991 278.551 224.428 280.267 223.489 281.379C222.559 282.485 220.472 281.537 219.976 280.428C219.349 279.025 220.173 277.151 221.805 277.038C222.555 276.985 223.019 277.012 223.649 277.502Z" fill="#308A34"/>
<path d="M291.904 323.093H256.32C256.369 317.641 256.441 312.149 255.955 306.743C255.548 302.197 255.301 297.631 255.425 293.068C255.526 289.318 255.229 285.515 255.355 281.737C255.496 277.513 256.404 273.309 256.578 269.066C256.708 265.903 257.252 262.841 257.921 259.746C258.689 256.197 258.641 252.54 259.612 249C260.593 245.425 261.634 241.871 262.342 238.209C262.988 234.879 263.386 231.52 264.067 228.206C265.615 220.694 265.652 213.094 264.425 205.527C264.068 203.318 263.913 201.122 263.366 198.939C262.294 194.669 260.348 190.503 257.011 187.535C255.778 186.437 254.088 185.907 252.884 184.886C252.773 184.289 252.641 183.695 252.532 183.091C252.523 183.045 252.516 182.998 252.508 182.954C253.905 182.796 255.483 183.759 256.731 184.256C259.706 185.439 262.754 186.435 265.72 187.646C267.085 188.205 268.472 188.791 269.806 189.388C271.109 189.972 272.15 190.99 273.46 191.576C274.924 192.233 276.39 192.881 277.876 193.49C281.035 194.787 284.23 196.038 287.191 197.757C291.121 200.037 294.816 202.316 297.946 205.696C300.87 208.856 303.195 213.025 305.217 216.799C307.458 220.978 309.147 225.649 310.662 230.132C311.027 231.219 311.565 232.314 311.777 233.44C312.175 235.559 312.317 237.771 312.639 239.914C313.002 242.338 313.33 244.767 313.631 247.199C314.243 252.146 314.741 257.105 315.17 262.069C315.717 268.4 315.649 274.77 316.328 281.09C316.991 287.283 319.407 292.838 320.45 298.913C321.126 302.854 320.339 306.807 320.082 310.746C319.943 312.869 320.725 314.92 320.699 317.031C320.675 319.065 320.129 321.053 320.074 323.093H291.904Z" fill="#45B34A"/>
<path d="M176.581 209.79C176.369 208.785 176.238 207.772 176.048 206.749C175.849 205.668 175.606 204.594 175.363 203.524C174.346 199.046 173.579 194.869 174.991 190.383C176.26 186.355 178.459 182.66 179.422 178.528C180.082 175.696 179.925 172.848 179.833 169.962C179.719 166.423 179.903 162.872 179.923 159.334C179.938 156.856 179.648 153.256 182.105 151.751C182.802 151.324 183.225 151.316 183.969 151.652C186.093 152.613 186.492 155.752 186.584 157.763C186.841 163.396 186.63 169.007 186.607 174.644C186.605 174.949 186.663 175.139 186.675 175.416C187.454 175.386 188.231 175.474 188.966 175.696C192.25 176.685 194.483 179.604 196.501 182.242C196.959 180.316 198.027 177.985 200.041 177.307C200.653 177.101 201.177 176.957 201.785 177.18C202.71 177.521 203.56 178.095 204.002 179C204.954 180.948 203.969 183.374 203.54 185.331C203.244 186.683 202.883 188.01 202.891 189.417C202.896 190.952 203.152 192.47 203.191 194.004C203.22 195.249 203.215 196.505 203.121 197.754C203.008 199.273 202.764 200.778 202.306 202.235C201.217 205.696 199.095 208.684 197.646 211.985C197.291 212.795 196.993 213.622 196.698 214.444C195.843 216.823 195.008 219.142 192.834 220.808C189.971 223.005 186.14 222.284 183.232 220.577C181.649 219.649 180.233 218.413 179.1 216.967C178.467 216.16 178.252 215.59 178.071 214.616C177.835 213.343 177.217 212.125 176.854 210.883C176.748 210.52 176.658 210.156 176.581 209.79Z" fill="#F5B49B"/>
<path d="M248.336 154.049C249.01 155.709 247.545 157.576 246.449 158.704C244.629 160.574 242.251 161.658 239.606 161.316C238.117 161.123 236.932 160.79 235.665 159.958C234.517 159.203 233.435 158.301 232.616 157.193C231.974 156.325 231.468 154.746 232.188 153.774C232.784 152.967 233.927 152.687 234.885 152.786C235.767 152.876 236.675 152.891 237.56 152.954C238.391 153.014 239.216 152.98 240.044 152.942C241.128 152.893 242.219 152.946 243.298 152.807C244.282 152.677 245.245 152.27 246.247 152.488C247.169 152.687 247.962 153.132 248.336 154.049Z" fill="white"/>
<path d="M206.203 141.054C206.05 139.982 205.93 138.907 205.802 137.841C205.664 136.675 205.566 135.478 205.204 134.345C204.476 132.069 203.071 130.088 202.297 127.831C201.934 126.771 201.727 125.807 201.743 124.681C201.761 123.459 201.923 122.243 202.028 121.024C202.203 118.987 202.629 116.979 203.106 114.993C203.732 112.379 204.675 109.675 204.391 106.958C204.358 106.644 204.317 106.332 204.278 106.017C204.019 103.967 204.71 102.447 205.648 100.687C207.095 97.9643 209.251 95.4397 212.018 93.9884C215.057 92.3933 218.771 91.8553 221.946 90.4766C223.311 89.8835 224.623 89.172 225.875 88.3663C226.388 88.0355 226.778 87.6091 227.317 87.3293C228.131 86.907 228.991 86.564 229.828 86.2063C230.83 85.7772 231.899 85.441 232.973 85.25C236.25 84.6649 239.798 84.8666 242.992 85.7839C246.125 86.6837 249.38 88.6017 250.155 92.0126C250.354 92.8896 251.01 92.8062 251.807 92.8062C254.16 92.2709 256.686 92.8075 258.78 93.9548C261.828 95.624 262.857 98.5211 264.498 101.348C265.953 103.859 267.991 105.958 269.776 108.228C272.045 111.118 273.773 114.383 273.211 118.168C272.95 119.932 272.678 121.586 272.734 123.357C272.787 125.157 271.929 127.196 271.48 128.922C271.188 130.04 271.081 131.252 270.643 132.305C269.596 134.825 269.425 137.48 269.545 140.162C269.553 140.357 269.561 140.552 269.573 140.749C269.61 141.386 269.562 142.252 269.512 142.899C269.472 143.423 269.426 143.903 269.247 144.398C269.094 144.82 268.74 145.468 268.226 145.545C266.547 145.792 266.869 140.914 266.844 140.017C266.759 137.053 266.234 133.737 264.528 131.227C263.641 129.924 263.098 128.277 262.735 126.747C262.331 125.051 262.225 123.453 262.226 121.724C262.229 119.031 262.424 116.313 260.982 113.866C259.664 111.629 256.957 110.641 254.485 110.455C253.891 110.41 253.516 110.447 252.935 110.414C248.938 110.173 245.002 110.449 241.285 112.01C240.113 112.502 238.83 112.704 237.563 112.68C234.306 112.621 231.223 111.319 228.069 110.657C226.513 110.329 225.041 110.254 223.472 110.361C221.845 110.473 220.214 110.574 218.862 111.615C217.644 112.552 216.811 113.904 216.339 115.351C216.011 116.353 215.829 117.4 215.724 118.446C215.593 119.76 215.972 121.009 215.863 122.311C215.675 124.579 215.256 126.754 214.159 128.767C213.875 129.292 213.68 129.853 213.439 130.398C213.221 130.889 212.893 131.252 212.6 131.698C211.957 132.676 211.244 133.626 210.798 134.716C209.782 137.206 210.422 139.934 210.459 142.524C210.473 143.584 210.464 144.735 209.767 145.607C209.048 146.505 208.086 146.256 207.4 145.449C206.683 144.61 206.605 143.542 206.424 142.503C206.344 142.02 206.27 141.538 206.203 141.054Z" fill="#222221"/>
<path d="M252.505 182.952C252.513 182.998 252.52 183.045 252.529 183.089C252.482 183.061 252.437 183.066 252.422 182.963C252.449 182.958 252.478 182.955 252.505 182.952Z" fill="#8CC295"/>
<path d="M253.749 137.279C253.932 138.224 253.627 139.231 253.105 140.019C252.526 140.893 251.249 141.006 250.299 140.744C248.179 140.163 247.555 137.647 249.039 136.073C249.831 135.231 251.173 134.633 252.282 135.219C252.962 135.579 253.604 136.53 253.749 137.279Z" fill="#2B1A0F"/>
<path d="M225.179 302.75C226.522 303.799 225.958 305.515 225.02 306.627C224.089 307.73 222.003 306.785 221.507 305.676C220.88 304.272 221.705 302.399 223.335 302.286C224.085 302.233 224.551 302.26 225.179 302.75Z" fill="#308A34"/>
<path d="M197.615 216.314C199.485 222.107 196.419 225.453 195.577 230.874C194.902 235.214 196.526 239.139 196.345 243.375C196.228 246.11 194.711 248.451 194.008 251.034C193.693 252.19 193.474 253.367 193.308 254.555C191.737 265.865 189.194 277.117 186.979 288.337C186.448 291.025 185.989 293.928 185.295 296.768C184.417 300.368 183.163 303.865 180.92 306.686C175.593 313.381 162.789 315.98 156.026 309.81C151.99 306.126 150.438 300.263 149.888 295.015C148.666 283.38 152.169 270.917 156.067 260.088C157.43 256.299 159.27 252.704 160.657 248.925C161.967 245.351 162.832 241.827 163.217 238.037C163.487 235.37 164.121 232.758 165.4 230.387C166.899 227.605 169.491 225.605 170.408 222.494C171.654 218.263 170.852 213.359 175.166 210.629C175.649 210.323 176.203 210.17 176.581 209.792C176.657 210.158 176.747 210.522 176.852 210.885C177.215 212.127 177.831 213.345 178.07 214.618C178.251 215.592 178.465 216.162 179.098 216.969C180.231 218.413 181.647 219.651 183.23 220.579C186.138 222.286 189.969 223.007 192.832 220.81C195.006 219.144 195.841 216.825 196.696 214.446L196.699 214.447C197.362 214.806 197.389 215.616 197.615 216.314Z" fill="#45B34A"/>
<path d="M226.972 183.173C226.972 183.078 226.974 182.983 226.98 182.891C227.066 180.99 227.099 179.083 226.988 177.182C226.931 176.232 226.84 175.283 226.699 174.343C226.638 173.944 226.51 173.547 226.439 173.168C226.375 172.813 226.473 172.265 226.227 171.972L226.401 171.668C226.629 171.8 226.856 171.929 227.086 172.059C227.305 172.339 227.512 172.614 227.709 172.821C228.812 173.983 229.826 175.142 231.114 176.116C233.003 177.542 234.976 178.973 237.194 179.836C239.714 180.817 242.593 181.515 245.289 181.73C247.704 181.924 249.96 181.325 252.293 181.184C252.317 181.532 252.35 181.878 252.392 182.221C252.422 182.467 252.461 182.709 252.502 182.951C252.476 182.954 252.446 182.957 252.419 182.962C252.434 183.067 252.48 183.06 252.527 183.088C252.636 183.694 252.767 184.287 252.879 184.884C253.03 185.699 253.143 186.519 253.097 187.38C253.014 188.962 252.574 190.514 251.869 191.929C250.474 194.733 248.032 197.059 245.102 198.197C244.525 198.421 243.954 198.681 243.369 198.884C242.324 199.25 241.116 199.395 240.013 199.336C238.892 199.277 237.706 199.055 236.622 198.766C234.82 198.287 233.316 197.793 231.787 196.67C229.477 194.975 227.689 192.499 226.968 189.712C226.684 188.622 226.665 187.781 226.88 186.71C226.98 186.214 227.007 185.706 227.007 185.191C227.007 184.518 226.96 183.839 226.972 183.173Z" fill="#F5B49B"/>
<path d="M256.254 126.664C256.705 127.397 256.288 128.186 255.477 128.304C254.721 128.417 253.984 128.087 253.286 127.845C252.968 127.734 252.627 127.602 252.305 127.524C251.906 127.426 251.513 127.551 251.111 127.539C249.952 127.502 248.927 127.949 247.844 128.293C247.556 128.383 247.188 128.417 246.897 128.251C245.906 127.68 246.681 126.711 247.278 126.179C247.695 125.808 248.067 125.579 248.59 125.381C249.263 125.127 250.034 124.849 250.741 124.74C251.353 124.644 251.991 124.601 252.608 124.668C253.879 124.808 255.56 125.54 256.254 126.664Z" fill="#1E244A"/>
<path d="M230.641 126.664C231.093 127.397 230.674 128.186 229.863 128.304C229.108 128.417 228.372 128.087 227.675 127.845C227.358 127.734 227.016 127.602 226.695 127.524C226.295 127.426 225.902 127.551 225.499 127.539C224.339 127.502 223.316 127.949 222.232 128.293C221.947 128.383 221.577 128.417 221.288 128.251C220.296 127.68 221.071 126.711 221.668 126.179C222.085 125.808 222.456 125.579 222.981 125.381C223.654 125.127 224.424 124.849 225.13 124.74C225.744 124.644 226.383 124.601 226.997 124.668C228.264 124.808 229.948 125.54 230.641 126.664Z" fill="#1E244A"/>
<path d="M228.523 137.279C228.706 138.224 228.399 139.231 227.877 140.019C227.299 140.893 226.021 141.006 225.071 140.744C222.953 140.163 222.329 137.647 223.811 136.073C224.605 135.231 225.946 134.633 227.054 135.219C227.735 135.579 228.377 136.53 228.523 137.279Z" fill="#2B1A0F"/>
<path d="M227.09 172.059C226.861 171.929 226.632 171.8 226.406 171.668C225.093 170.915 223.806 170.114 222.543 169.22C220.056 167.459 217.393 165.446 215.557 162.984C214.47 161.529 213.346 160.134 212.208 158.711C211.197 157.444 210.544 155.935 209.564 154.648C208.523 153.275 207.349 153.058 205.903 152.238C204.429 151.401 203.046 150.259 202.056 148.878C201.669 148.34 201.262 147.937 200.992 147.325C200.699 146.663 200.41 146.017 200.225 145.314C199.857 143.908 199.837 142.395 200.4 141.035C200.864 139.918 202.013 139.076 203.217 138.955C204.823 138.795 205.374 139.957 206.208 141.054C206.274 141.538 206.349 142.02 206.433 142.503C206.614 143.541 206.692 144.61 207.409 145.45C208.095 146.257 209.057 146.504 209.776 145.607C210.473 144.737 210.482 143.584 210.468 142.524C210.431 139.934 209.79 137.206 210.807 134.717C211.253 133.626 211.966 132.676 212.609 131.698C212.902 131.252 213.23 130.89 213.448 130.398C213.689 129.853 213.884 129.292 214.168 128.768C215.265 126.754 215.682 124.579 215.872 122.312C215.981 121.01 215.602 119.76 215.733 118.446C215.84 117.4 216.021 116.353 216.348 115.351C216.82 113.903 217.653 112.551 218.871 111.615C220.223 110.575 221.854 110.473 223.481 110.361C225.05 110.254 226.522 110.329 228.078 110.657C231.233 111.319 234.314 112.621 237.572 112.68C238.839 112.704 240.122 112.504 241.294 112.01C245.011 110.449 248.947 110.173 252.944 110.414C253.525 110.449 253.9 110.411 254.494 110.455C256.966 110.64 259.673 111.628 260.991 113.866C262.433 116.314 262.238 119.031 262.235 121.724C262.234 123.453 262.34 125.051 262.744 126.747C263.107 128.277 263.65 129.926 264.537 131.228C266.243 133.737 266.768 137.053 266.853 140.017C266.878 140.916 266.557 145.794 268.235 145.545C268.749 145.468 269.103 144.82 269.256 144.398C269.435 143.903 269.48 143.423 269.521 142.9C269.571 142.253 269.619 141.386 269.582 140.749C269.57 140.552 269.56 140.357 269.553 140.162L269.632 140.16C271.056 138.029 274.124 139.132 274.971 141.168C275.554 142.571 275.532 144.133 275.151 145.584C274.96 146.309 274.663 146.976 274.361 147.659C274.081 148.293 273.661 148.709 273.263 149.265C272.239 150.691 270.811 151.872 269.289 152.733C268.167 153.369 266.982 153.881 265.833 154.465L265.751 154.429C264.296 157.751 262.498 161.196 260.268 163.886C258.523 165.993 256.397 168.071 254.421 169.972C253.845 170.524 253.202 171.08 252.507 171.621C249.131 174.247 244.545 176.533 240.617 176.662L240.614 176.749C239.148 176.707 237.584 176.449 236.152 176.058C234.375 175.574 232.635 175.009 231.006 174.156C229.678 173.462 228.372 172.779 227.09 172.059ZM255.483 128.305C256.293 128.185 256.711 127.398 256.261 126.665C255.567 125.541 253.884 124.809 252.616 124.669C251.999 124.601 251.361 124.645 250.749 124.741C250.042 124.85 249.271 125.128 248.598 125.382C248.075 125.58 247.704 125.809 247.286 126.18C246.688 126.712 245.912 127.681 246.905 128.252C247.196 128.419 247.564 128.386 247.852 128.294C248.935 127.95 249.96 127.503 251.119 127.54C251.521 127.552 251.914 127.427 252.313 127.525C252.635 127.603 252.976 127.735 253.294 127.846C253.989 128.088 254.728 128.418 255.483 128.305ZM253.105 140.019C253.627 139.23 253.933 138.224 253.75 137.279C253.604 136.531 252.964 135.58 252.282 135.218C251.174 134.632 249.832 135.23 249.04 136.072C247.556 137.646 248.181 140.162 250.3 140.743C251.249 141.006 252.526 140.893 253.105 140.019ZM246.453 158.705C247.549 157.577 249.014 155.709 248.34 154.05C247.966 153.132 247.173 152.686 246.251 152.487C245.249 152.269 244.286 152.678 243.302 152.805C242.224 152.947 241.132 152.892 240.048 152.941C239.22 152.979 238.397 153.013 237.564 152.953C236.678 152.89 235.771 152.877 234.889 152.785C233.93 152.686 232.788 152.965 232.192 153.772C231.473 154.746 231.98 156.324 232.62 157.191C233.439 158.3 234.522 159.202 235.669 159.957C236.936 160.789 238.121 161.123 239.61 161.315C242.255 161.658 244.633 160.574 246.453 158.705ZM229.863 128.305C230.672 128.185 231.092 127.398 230.64 126.665C229.947 125.541 228.263 124.809 226.995 124.669C226.38 124.601 225.741 124.645 225.128 124.741C224.422 124.85 223.651 125.128 222.979 125.382C222.454 125.58 222.084 125.809 221.666 126.18C221.069 126.712 220.293 127.681 221.285 128.252C221.576 128.419 221.945 128.386 222.23 128.294C223.314 127.95 224.337 127.503 225.497 127.54C225.9 127.552 226.293 127.427 226.692 127.525C227.014 127.603 227.355 127.735 227.673 127.846C228.371 128.088 229.107 128.418 229.863 128.305ZM227.881 140.019C228.403 139.23 228.71 138.224 228.527 137.279C228.382 136.531 227.739 135.58 227.058 135.218C225.95 134.632 224.609 135.23 223.815 136.072C222.335 137.646 222.959 140.162 225.076 140.743C226.025 141.006 227.302 140.893 227.881 140.019Z" fill="#F5B49B"/>
<path d="M234.055 314.231C233.579 312.801 233.612 311.354 233.358 309.864C232.75 306.281 232.349 302.667 232.029 299.047C231.877 297.32 231.97 295.392 231.584 293.704C231.277 292.366 231.187 291.092 231.106 289.705C230.719 283.037 229.565 276.415 227.688 270.005C227.764 270.466 227.837 270.93 227.904 271.397C228.634 276.551 229.011 281.748 229.256 286.945C229.265 287.159 229.276 287.373 229.285 287.587C229.406 290.262 229.494 292.94 229.579 295.615C229.747 300.879 229.892 306.047 229.873 311.326C229.861 315.251 229.717 319.173 229.527 323.093H235.257C235.17 321.914 235.008 320.733 234.846 319.567C234.609 317.859 234.601 315.867 234.055 314.231Z" fill="#EDEDED"/>
<path d="M264.422 205.527C264.065 203.319 263.911 201.122 263.363 198.939C262.291 194.669 260.345 190.503 257.008 187.535C255.775 186.438 254.085 185.908 252.882 184.887C253.032 185.702 253.145 186.522 253.099 187.383C253.016 188.965 252.576 190.517 251.871 191.932C250.477 194.736 248.034 197.062 245.105 198.2C244.528 198.424 243.956 198.684 243.371 198.887C242.326 199.253 241.118 199.398 240.015 199.339C238.895 199.28 237.709 199.058 236.625 198.768C234.822 198.29 233.319 197.796 231.789 196.673C229.48 194.978 227.691 192.502 226.97 189.715C226.686 188.624 226.667 187.784 226.883 186.713C226.982 186.217 227.009 185.709 227.009 185.193C226.655 185.557 225.894 185.983 225.464 186.369C222.752 188.818 221.378 193.001 220.139 196.337C217.859 202.474 217.39 209.029 217.333 215.522C217.277 222.146 217.69 228.74 218.728 235.299C219.285 238.814 220.012 242.305 220.94 245.743C223.16 253.966 226.283 261.58 227.686 270.004C229.563 276.414 230.717 283.035 231.105 289.704C231.185 291.091 231.275 292.364 231.582 293.703C231.968 295.391 231.875 297.319 232.027 299.046C232.346 302.666 232.747 306.28 233.356 309.863C233.609 311.353 233.575 312.8 234.053 314.23C234.599 315.866 234.607 317.857 234.845 319.566C235.008 320.732 235.168 321.913 235.257 323.092H240.793H256.315C256.365 317.64 256.436 312.148 255.951 306.742C255.543 302.196 255.297 297.63 255.42 293.066C255.52 289.317 255.223 285.514 255.35 281.736C255.491 277.511 256.399 273.308 256.572 269.065C256.703 265.901 257.246 262.84 257.916 259.745C258.684 256.196 258.635 252.539 259.607 248.999C260.587 245.424 261.628 241.87 262.337 238.208C262.982 234.878 263.381 231.519 264.061 228.205C265.611 220.695 265.648 213.094 264.422 205.527Z" fill="#FFFBF2"/>
<path d="M243.768 108.885C243.673 108.885 243.576 108.848 243.503 108.776C243.355 108.629 243.352 108.39 243.499 108.242C246.248 105.455 247.515 101.791 248.391 98.5754C248.446 98.3736 248.654 98.2553 248.855 98.3104C249.057 98.3656 249.175 98.5727 249.12 98.7744C247.513 104.675 245.648 107.14 244.036 108.773C243.963 108.847 243.866 108.885 243.768 108.885Z" fill="black"/>
<path d="M249.839 109.029C249.683 109.029 249.536 108.933 249.482 108.777C249.414 108.58 249.517 108.364 249.713 108.295C251.722 107.592 253.524 106.547 255.072 105.189C255.229 105.052 255.467 105.067 255.606 105.224C255.743 105.382 255.728 105.62 255.571 105.758C253.95 107.18 252.063 108.275 249.964 109.009C249.922 109.023 249.879 109.029 249.839 109.029Z" fill="black"/>
<path d="M232.489 105.369C232.316 105.369 232.159 105.248 232.121 105.07C231.272 101.136 229.065 98.1595 226.068 96.9046C225.876 96.8239 225.785 96.602 225.865 96.4096C225.946 96.2173 226.168 96.1272 226.36 96.2065C229.588 97.5583 231.958 100.731 232.859 104.91C232.904 105.114 232.773 105.315 232.57 105.359C232.543 105.366 232.516 105.369 232.489 105.369Z" fill="black"/>
<path d="M219.766 105.19C219.704 105.19 219.641 105.175 219.583 105.143C217.302 103.874 215.114 103.375 213.079 103.662C212.872 103.691 212.681 103.547 212.652 103.34C212.623 103.133 212.767 102.942 212.974 102.914C215.176 102.605 217.523 103.132 219.95 104.484C220.133 104.584 220.198 104.816 220.097 104.997C220.028 105.118 219.899 105.19 219.766 105.19Z" fill="black"/>
<path d="M240.736 147.839C240.338 147.839 239.917 147.743 239.481 147.552C238.733 147.226 238.182 146.876 237.747 146.455C237.598 146.31 237.594 146.07 237.739 145.921C237.885 145.772 238.124 145.768 238.273 145.913C238.642 146.269 239.121 146.571 239.784 146.861C240.225 147.053 240.631 147.122 240.99 147.064C241.266 147.02 241.544 146.934 241.817 146.807C242.175 146.642 243.263 146.139 242.549 143.792C242.314 143.017 242.034 142.238 241.765 141.486C241.519 140.799 241.265 140.088 241.041 139.376C240.912 138.963 240.877 138.564 240.844 138.176C240.827 137.991 240.813 137.816 240.787 137.637C240.593 136.26 240.713 134.839 240.873 133.509C240.897 133.302 241.086 133.154 241.293 133.178C241.5 133.203 241.648 133.391 241.624 133.598C241.47 134.877 241.355 136.24 241.536 137.531C241.564 137.729 241.581 137.922 241.597 138.109C241.628 138.471 241.657 138.814 241.762 139.147C241.981 139.846 242.233 140.549 242.476 141.23C242.748 141.991 243.031 142.778 243.271 143.57C244.02 146.031 243.067 147.06 242.135 147.491C241.798 147.647 241.454 147.753 241.109 147.808C240.986 147.829 240.862 147.839 240.736 147.839Z" fill="#AB684D"/>
<path d="M207.353 150.148C207.215 150.148 207.081 150.071 207.015 149.94C206.82 149.55 206.449 149.299 206.055 149.033C205.599 148.725 205.081 148.375 204.837 147.762C204.584 147.129 204.757 146.57 204.911 146.077C204.976 145.863 205.04 145.661 205.069 145.459C205.099 145.259 205.033 145.077 204.948 144.847C204.908 144.737 204.866 144.623 204.833 144.498C204.722 144.093 204.623 143.852 204.389 143.66C203.786 143.166 203.248 142.923 202.874 142.972C202.677 142.999 202.511 143.111 202.367 143.315C202.247 143.486 202.011 143.527 201.84 143.407C201.669 143.287 201.629 143.05 201.748 142.88C202.016 142.5 202.36 142.28 202.772 142.223C203.375 142.143 204.079 142.428 204.868 143.075C205.295 143.426 205.445 143.871 205.562 144.297C205.588 144.393 205.622 144.488 205.658 144.588C205.759 144.865 205.874 145.178 205.817 145.568C205.779 145.829 205.704 146.069 205.633 146.301C205.494 146.747 205.385 147.098 205.539 147.482C205.697 147.879 206.059 148.124 206.479 148.408C206.915 148.702 207.408 149.036 207.692 149.602C207.786 149.789 207.71 150.016 207.524 150.109C207.467 150.135 207.41 150.148 207.353 150.148Z" fill="#AB684D"/>
<path d="M268.417 150.597C268.361 150.597 268.303 150.584 268.248 150.557C268.061 150.463 267.985 150.237 268.08 150.05C268.371 149.469 268.88 149.124 269.328 148.822C269.762 148.528 270.137 148.274 270.303 147.861C270.463 147.461 270.343 147.077 270.206 146.635C270.132 146.395 270.055 146.149 270.016 145.88C269.959 145.481 270.076 145.159 270.179 144.874C270.217 144.771 270.253 144.672 270.28 144.573C270.4 144.134 270.553 143.677 270.993 143.317C271.804 142.651 272.529 142.356 273.148 142.441C273.569 142.497 273.921 142.725 274.195 143.113C274.315 143.284 274.275 143.52 274.104 143.641C273.933 143.76 273.698 143.72 273.577 143.549C273.426 143.335 273.253 143.218 273.044 143.19C272.654 143.138 272.094 143.391 271.47 143.902C271.226 144.102 271.123 144.352 271.008 144.772C270.973 144.902 270.93 145.019 270.888 145.132C270.801 145.372 270.732 145.56 270.763 145.77C270.794 145.98 270.858 146.188 270.927 146.409C271.084 146.916 271.263 147.49 271.004 148.14C270.752 148.769 270.242 149.114 269.75 149.447C269.343 149.723 268.958 149.982 268.755 150.387C268.689 150.52 268.556 150.597 268.417 150.597Z" fill="#AB684D"/>
<path d="M195.234 194.493C195.148 194.493 195.082 194.475 195.025 194.454C195.003 194.446 195 194.446 194.981 194.444C194.773 194.427 194.618 194.245 194.634 194.037C194.65 193.829 194.833 193.674 195.04 193.69C195.132 193.697 195.196 193.715 195.249 193.732C195.285 193.724 195.323 193.721 195.359 193.724C196.362 193.799 197.235 192.548 197.551 191.744C198.076 190.409 198.222 188.86 197.987 187.146C197.788 185.694 197.528 184.191 196.739 183.171C196.591 182.98 196.443 182.786 196.292 182.59C196.166 182.425 196.197 182.187 196.362 182.06C196.528 181.934 196.766 181.965 196.892 182.13C197.042 182.325 197.189 182.517 197.336 182.708C198.239 183.876 198.522 185.49 198.735 187.042C198.988 188.887 198.826 190.562 198.253 192.02C198.018 192.621 197.628 193.218 197.184 193.658C196.615 194.223 195.986 194.505 195.362 194.48C195.315 194.489 195.272 194.493 195.234 194.493Z" fill="#AB684D"/>
<path d="M182.136 177.395C182.022 177.395 181.907 177.342 181.833 177.244C181.708 177.077 181.742 176.841 181.909 176.715C183.146 175.785 184.694 175.197 186.269 175.061C186.476 175.042 186.661 175.197 186.678 175.405C186.696 175.614 186.542 175.797 186.334 175.814C184.899 175.939 183.488 176.473 182.363 177.319C182.295 177.37 182.215 177.395 182.136 177.395Z" fill="#AB684D"/>
<path d="M189.832 200.236C189.32 200.236 188.84 200.099 188.495 199.731C188.471 199.707 188.378 199.663 188.318 199.635C188.113 199.541 187.77 199.382 187.737 198.987C187.719 198.778 187.874 198.596 188.081 198.578C188.273 198.563 188.441 198.691 188.482 198.873C188.518 198.895 188.587 198.928 188.635 198.951C188.771 199.014 188.926 199.085 189.048 199.216C189.616 199.822 191.214 199.272 191.912 198.805C193.863 197.503 195.273 194.271 194.041 190.847C193.894 190.437 193.606 190.033 193.328 189.642C193.219 189.489 193.106 189.33 193.002 189.172C191.36 186.669 189.737 185.233 188.179 184.902C186.507 184.546 184.638 184.829 183.673 185.03C183.469 185.072 183.269 184.941 183.227 184.737C183.184 184.532 183.316 184.332 183.52 184.29C184.544 184.078 186.529 183.779 188.337 184.162C190.121 184.542 191.854 186.045 193.635 188.757C193.73 188.902 193.834 189.049 193.944 189.203C194.252 189.637 194.569 190.083 194.752 190.59C195.768 193.416 195.265 197.475 192.331 199.433C191.817 199.776 190.771 200.236 189.832 200.236Z" fill="#AB684D"/>
<path d="M184.75 204.25C184.064 204.25 183.413 203.929 182.937 203.307C182.551 202.803 182.296 202.172 182.255 201.622C182.238 201.384 182.259 201.146 182.281 200.916C182.313 200.559 182.344 200.223 182.222 199.961C181.916 199.302 181.354 198.847 180.758 198.367L180.561 198.207C180.399 198.075 180.375 197.837 180.507 197.676C180.639 197.514 180.877 197.49 181.038 197.622L181.233 197.779C181.869 198.293 182.527 198.826 182.908 199.644C183.115 200.09 183.072 200.566 183.034 200.986C183.015 201.194 182.998 201.392 183.01 201.568C183.04 201.972 183.243 202.463 183.539 202.85C184.097 203.58 184.939 203.703 185.736 203.171C187.123 202.247 187.682 200.312 187.744 198.81C187.775 198.038 187.657 197.208 187.392 196.344C187.115 195.44 186.374 194.69 185.657 193.962L185.485 193.787C184.644 192.929 183.715 192.307 182.722 191.937C182.527 191.864 182.428 191.646 182.5 191.45C182.573 191.255 182.791 191.155 182.987 191.228C184.083 191.638 185.105 192.32 186.024 193.257L186.195 193.431C186.94 194.186 187.783 195.041 188.116 196.121C188.406 197.068 188.535 197.982 188.5 198.839C188.411 201.026 187.534 202.881 186.156 203.8C185.7 204.102 185.217 204.25 184.75 204.25Z" fill="#AB684D"/>
<path d="M189.292 205.024C189.256 205.024 189.22 205.018 189.182 205.008C188.982 204.947 188.87 204.736 188.931 204.537C189.485 202.712 190.141 201.349 191.062 200.12C191.226 199.901 191.376 199.698 191.522 199.499C191.736 199.207 191.939 198.931 192.18 198.616C192.306 198.451 192.545 198.419 192.71 198.545C192.875 198.671 192.908 198.91 192.781 199.075C192.545 199.384 192.344 199.657 192.133 199.945C191.985 200.147 191.836 200.351 191.669 200.573C190.803 201.73 190.181 203.02 189.655 204.758C189.604 204.919 189.455 205.024 189.292 205.024Z" fill="#AB684D"/>
<path d="M185.362 296.859C185.332 296.859 185.303 296.855 185.275 296.848C185.071 296.8 184.946 296.595 184.995 296.393C185.437 294.535 185.787 292.645 186.125 290.817C186.289 289.932 186.442 289.095 186.607 288.261C187.155 285.485 187.733 282.661 188.291 279.928C189.993 271.606 191.752 263.002 192.933 254.501C193.116 253.181 193.349 252.014 193.643 250.932C193.908 249.959 194.289 249.013 194.656 248.098C195.293 246.514 195.896 245.018 195.966 243.359C196.043 241.534 195.772 239.719 195.51 237.965C195.168 235.675 194.815 233.305 195.202 230.815C195.49 228.959 196.029 227.36 196.551 225.812C197.573 222.776 198.457 220.153 197.254 216.429C197.198 216.254 197.154 216.078 197.112 215.907C196.988 215.407 196.881 214.974 196.516 214.776C196.333 214.677 196.265 214.447 196.365 214.264C196.465 214.081 196.695 214.012 196.878 214.113C197.534 214.469 197.7 215.138 197.845 215.726C197.887 215.891 197.924 216.048 197.973 216.198C199.252 220.159 198.287 223.022 197.267 226.054C196.755 227.571 196.227 229.139 195.948 230.931C195.579 233.307 195.924 235.618 196.258 237.854C196.525 239.642 196.801 241.493 196.721 243.391C196.645 245.181 195.99 246.807 195.357 248.381C194.996 249.275 194.625 250.199 194.372 251.131C194.087 252.182 193.861 253.318 193.682 254.606C192.497 263.13 190.735 271.748 189.032 280.08C188.474 282.81 187.897 285.635 187.35 288.408C187.186 289.238 187.032 290.072 186.868 290.956C186.529 292.793 186.178 294.692 185.731 296.57C185.689 296.742 185.534 296.859 185.362 296.859Z" fill="#308A34"/>
<path d="M184.689 239.874C184.592 239.874 184.495 239.836 184.421 239.763C181.205 236.535 178.338 232.969 175.022 228.607C174.896 228.44 174.928 228.204 175.095 228.077C175.262 227.951 175.499 227.983 175.625 228.15C178.923 232.487 181.772 236.031 184.958 239.23C185.106 239.378 185.105 239.617 184.957 239.764C184.881 239.836 184.784 239.874 184.689 239.874Z" fill="#308A34"/>
<path d="M178.57 248.432C176.793 248.432 174.907 248.097 172.809 247.421C172.61 247.356 172.501 247.144 172.565 246.945C172.63 246.746 172.843 246.637 173.042 246.701C176.239 247.733 178.908 247.939 181.447 247.348C181.65 247.301 181.853 247.428 181.9 247.631C181.947 247.834 181.82 248.037 181.617 248.084C180.626 248.317 179.617 248.432 178.57 248.432Z" fill="#308A34"/>
<path d="M291.904 323.608C291.903 323.608 291.901 323.608 291.9 323.608C291.692 323.607 291.523 323.436 291.526 323.227C291.549 320.63 291.322 317.95 291.101 315.358C290.91 313.106 290.711 310.778 290.679 308.517C290.62 304.353 290.41 300.118 290.205 296.022C290.131 294.547 290.056 293.021 289.989 291.522C289.588 282.641 288.981 274.193 288.134 265.698C287.241 256.743 286.484 247.983 287.026 239.263C287.417 232.954 288.808 226.218 291.275 218.674C291.339 218.475 291.553 218.367 291.751 218.432C291.95 218.496 292.057 218.71 291.993 218.908C289.546 226.392 288.168 233.064 287.78 239.309C287.242 247.973 287.997 256.7 288.886 265.622C289.735 274.132 290.343 282.592 290.743 291.488C290.811 292.986 290.887 294.512 290.96 295.986C291.164 300.088 291.375 304.33 291.435 308.508C291.467 310.742 291.663 313.057 291.854 315.295C292.076 317.904 292.306 320.603 292.282 323.236C292.281 323.441 292.111 323.608 291.904 323.608Z" fill="#308A34"/>
<path d="M303.448 309.008C303.341 309.008 303.235 308.963 303.159 308.874C303.025 308.714 303.045 308.476 303.205 308.341C307.209 304.967 310.015 301.599 311.543 298.332C311.631 298.142 311.856 298.062 312.046 298.15C312.235 298.239 312.316 298.464 312.227 298.653C310.652 302.021 307.781 305.475 303.692 308.92C303.621 308.98 303.535 309.008 303.448 309.008Z" fill="#308A34"/>
<path d="M222.46 272.252C222.276 272.252 222.114 272.117 222.086 271.929C221.501 267.956 220.347 264.158 219.294 260.966C218.929 259.86 218.489 258.723 218.063 257.622C217.146 255.253 216.198 252.802 215.84 250.306C215.81 250.098 215.954 249.907 216.16 249.878C216.367 249.848 216.558 249.992 216.588 250.198C216.933 252.608 217.865 255.018 218.768 257.349C219.197 258.459 219.641 259.605 220.012 260.729C221.075 263.952 222.241 267.789 222.834 271.819C222.865 272.026 222.721 272.217 222.515 272.248C222.496 272.251 222.477 272.252 222.46 272.252Z" fill="#308A34"/>
<path d="M293.417 216.157C293.37 216.157 293.322 216.148 293.275 216.129C293.081 216.05 292.988 215.829 293.067 215.637C293.681 214.134 294.552 212.763 295.396 211.436C295.966 210.539 296.556 209.611 297.047 208.666C297.144 208.48 297.373 208.409 297.557 208.504C297.743 208.601 297.814 208.828 297.718 209.014C297.211 209.988 296.613 210.931 296.035 211.841C295.21 213.139 294.357 214.481 293.768 215.922C293.706 216.069 293.565 216.157 293.417 216.157Z" fill="#308A34"/>
</g>
<defs>
<linearGradient id="paint0_linear_3059_8834" x1="228" y1="0" x2="228" y2="458" gradientUnits="userSpaceOnUse">
<stop stop-color="#71DE76"/>
<stop offset="1" stop-color="#F7F9F7" stop-opacity="0"/>
</linearGradient>
<linearGradient id="paint1_linear_3059_8834" x1="229" y1="51" x2="229" y2="509" gradientUnits="userSpaceOnUse">
<stop stop-color="#71DE76"/>
<stop offset="1" stop-color="#F7F9F7" stop-opacity="0"/>
</linearGradient>
</defs>
</svg>
